<svg xmlns="http://www.w3.org/2000/svg" viewBox="0 0 841.9 595.3"><g fill="#61DAFB"><path d="M666.3 296.5c0-32.5-40.7-63.3-103.1-82.4 14.4-63.6 8-114.2-20.2-130.4-6.5-3.8-14.1-5.6-22.4-5.6v22.3c4.6 0 8.3.9 11.4 2.6 13.6 7.8 19.5 37.5 14.9 75.7-1.1 9.4-2.9 19.3-5.1 29.4-19.6-4.8-41-8.5-63.5-10.9-13.5-18.5-27.5-35.3-41.6-50 32.6-30.3 63.2-46.9 84-46.9V78c-27.5 0-63.5 19.6-99.9 53.6-36.4-33.8-72.4-53.2-99.9-53.2v22.3c20.7 0 51.4 16.5 84 46.6-14 14.7-28 31.4-41.3 49.9-22.6 2.4-44 6.1-63.6 11-2.3-10-4-19.7-5.2-29-4.7-38.2 1.1-67.9 14.6-75.8 3-1.8 6.9-2.6 11.5-2.6V78.5c-8.4 0-16 1.8-22.6 5.6-28.1 16.2-34.4 66.7-19.9 130.1-62.2 19.2-102.7 49.9-102.7 82.3 0 32.5 40.7 63.3 103.1 82.4-14.4 63.6-8 114.2 20.2 130.4 6.5 3.8 14.1 5.6 22.5 5.6 27.5 0 63.5-19.6 99.9-53.6 36.4 33.8 72.4 53.2 99.9 53.2 8.4 0 16-1.8 22.6-5.6 28.1-16.2 34.4-66.7 19.9-130.1 62-19.1 102.5-49.9 102.5-82.3zm-130.2-66.7c-3.7 12.9-8.3 26.2-13.5 39.5-4.1-8-8.4-16-13.1-24-4.6-8-9.5-15.8-14.4-23.4 14.2 2.1 27.9 4.7 41 7.9zm-45.8 106.5c-7.8 13.5-15.8 26.3-24.1 38.2-14.9 1.3-30 2-45.2 2-15.1 0-30.2-.7-45-1.9-8.3-11.9-16.4-24.6-24.2-38-7.6-13.1-14.5-26.4-20.8-39.8 6.2-13.4 13.2-26.8 20.7-39.9 7.8-13.5 15.8-26.3 24.1-38.2 14.9-1.3 30-2 45.2-2 15.1 0 30.2.7 45 1.9 8.3 11.9 16.4 24.6 24.2 38 7.6 13.1 14.5 26.4 20.8 39.8-6.3 13.4-13.2 26.8-20.7 39.9zm32.3-13c5.4 13.4 10 26.8 13.8 39.8-13.1 3.2-26.9 5.9-41.2 8 4.9-7.7 9.8-15.6 14.4-23.7 4.6-8 8.9-16.1 13-24.1zM421.2 430c-9.3-9.6-18.6-20.3-27.8-32 9 .4 18.2.7 27.5.7 9.4 0 18.7-.2 27.8-.7-9 11.7-18.3 22.4-27.5 32zm-74.4-58.9c-14.2-2.1-27.9-4.7-41-7.9 3.7-12.9 8.3-26.2 13.5-39.5 4.1 8 8.4 16 13.1 24 4.7 8 9.5 15.8 14.4 23.4zM420.7 163c9.3 9.6 18.6 20.3 27.8 32-9-.4-18.2-.7-27.5-.7-9.4 0-18.7.2-27.8.7 9-11.7 18.3-22.4 27.5-32zm-74 58.9c-4.9 7.7-9.8 15.6-14.4 23.7-4.6 8-8.9 16-13 24-5.4-13.4-10-26.8-13.8-39.8 13.1-3.1 26.9-5.8 41.2-7.9zm-90.5 125.2c-35.4-15.1-58.3-34.9-58.3-50.6 0-15.7 22.9-35.6 58.3-50.6 8.6-3.7 18-7 27.7-10.1 5.7 19.6 13.2 40 22.5 60.9-9.2 20.8-16.6 41.1-22.2 60.6-9.9-3.1-19.3-6.5-28-10.2zM310 490c-13.6-7.8-19.5-37.5-14.9-75.7 1.1-9.4 2.9-19.3 5.1-29.4 19.6 4.8 41 8.5 63.5 10.9 13.5 18.5 27.5 35.3 41.6 50-32.6 30.3-63.2 46.9-84 46.9-4.5-.1-8.3-1-11.3-2.7zm237.2-76.2c4.7 38.2-1.1 67.9-14.6 75.8-3 1.8-6.9 2.6-11.5 2.6-20.7 0-51.4-16.5-84-46.6 14-14.7 28-31.4 41.3-49.9 22.6-2.4 44-6.1 63.6-11 2.3 10.1 4.1 19.8 5.2 29.1zm38.5-66.7c-8.6 3.7-18 7-27.7 10.1-5.7-19.6-13.2-40-22.5-60.9 9.2-20.8 16.6-41.1 22.2-60.6 9.9 3.1 19.3 6.5 28.1 10.2 35.4 15.1 58.3 34.9 58.3 50.6-.1 15.7-23 35.6-58.4 50.6zM320.8 78.4z"/><circle cx="420.9" cy="296.5" r="45.7"/><path d="M520.5 78.1z"/></g></svg><svg version="1.1" id="Layer_1" xmlns="http://www.w3.org/2000/svg" xmlns:xlink="http://www.w3.org/1999/xlink" x="0px" y="0px"
	 width="100%" viewBox="0 0 85 56" enable-background="new 0 0 85 56" xml:space="preserve">
<path fill="#121928" opacity="1.000000" stroke="none" 
	d="
M55.000000,57.000000 
	C36.666672,57.000000 18.833344,57.000000 1.000012,57.000000 
	C1.000008,38.333344 1.000008,19.666689 1.000004,1.000025 
	C29.333313,1.000016 57.666626,1.000016 85.999954,1.000008 
	C85.999969,19.666641 85.999969,38.333282 85.999985,56.999962 
	C75.833336,57.000000 65.666664,57.000000 55.000000,57.000000 
M68.591881,45.415810 
	C75.470970,39.165028 75.047226,32.718323 67.373100,27.432493 
	C70.594505,24.831507 73.019844,21.408041 71.005791,17.508028 
	C69.651764,14.886087 66.536087,11.671461 63.972885,11.450026 
	C55.286266,10.699590 46.494728,11.163626 37.383022,11.163626 
	C37.383022,15.911924 37.383022,20.188940 37.383022,24.655842 
	C32.791943,24.655842 28.578445,24.655842 23.837994,24.655842 
	C23.837994,19.937681 23.837994,15.536318 23.837994,11.312469 
	C21.041222,11.312469 18.787081,11.312469 16.571075,11.312469 
	C16.571075,23.360649 16.571075,35.077301 16.571075,46.708927 
	C19.203869,46.708927 21.459845,46.708927 24.247734,46.708927 
	C24.247734,41.349106 24.247734,36.288570 24.247734,31.306952 
	C28.892269,31.306952 32.992943,31.306952 37.615154,31.306952 
	C37.615154,36.663284 37.615154,41.734859 37.615154,47.015583 
	C42.631126,47.015583 47.127407,47.168839 51.608829,46.976280 
	C57.049759,46.742485 62.478149,46.216927 68.591881,45.415810 
z"/>
<path fill="#C4CEDB" opacity="1.000000" stroke="none" 
	d="
M68.251923,45.616703 
	C62.478149,46.216927 57.049759,46.742485 51.608829,46.976280 
	C47.127407,47.168839 42.631126,47.015583 37.615154,47.015583 
	C37.615154,41.734859 37.615154,36.663284 37.615154,31.306952 
	C32.992943,31.306952 28.892269,31.306952 24.247734,31.306952 
	C24.247734,36.288570 24.247734,41.349106 24.247734,46.708927 
	C21.459845,46.708927 19.203869,46.708927 16.571075,46.708927 
	C16.571075,35.077301 16.571075,23.360649 16.571075,11.312469 
	C18.787081,11.312469 21.041222,11.312469 23.837994,11.312469 
	C23.837994,15.536318 23.837994,19.937681 23.837994,24.655842 
	C28.578445,24.655842 32.791943,24.655842 37.383022,24.655842 
	C37.383022,20.188940 37.383022,15.911924 37.383022,11.163626 
	C46.494728,11.163626 55.286266,10.699590 63.972885,11.450026 
	C66.536087,11.671461 69.651764,14.886087 71.005791,17.508028 
	C73.019844,21.408041 70.594505,24.831507 67.373100,27.432493 
	C75.047226,32.718323 75.470970,39.165028 68.251923,45.616703 
M53.561211,31.011862 
	C47.486835,33.015648 52.394547,37.500805 50.504620,40.945358 
	C54.346680,40.945358 57.462067,41.498947 60.229771,40.756485 
	C62.170406,40.235889 64.581871,38.217464 65.104607,36.388283 
	C66.001503,33.249794 63.448368,31.616392 60.480331,31.238363 
	C58.509880,30.987394 56.496346,31.074631 53.561211,31.011862 
M57.217587,24.988264 
	C57.880409,24.980482 58.552513,25.041195 59.204430,24.952890 
	C61.821476,24.598400 64.696495,23.757721 63.892689,20.614733 
	C63.503551,19.093142 60.808525,17.618284 58.907780,17.161604 
	C56.447395,16.570461 53.737598,17.017397 51.105106,17.017397 
	C51.105106,19.930750 51.105106,22.308365 51.105106,24.988489 
	C53.037262,24.988489 54.672012,24.988489 57.217587,24.988264 
z"/>
<path fill="#141B2A" opacity="1.000000" stroke="none" 
	d="
M54.031654,31.011169 
	C56.496346,31.074631 58.509880,30.987394 60.480331,31.238363 
	C63.448368,31.616392 66.001503,33.249794 65.104607,36.388283 
	C64.581871,38.217464 62.170406,40.235889 60.229771,40.756485 
	C57.462067,41.498947 54.346680,40.945358 50.504620,40.945358 
	C52.394547,37.500805 47.486835,33.015648 54.031654,31.011169 
z"/>
<path fill="#131A29" opacity="1.000000" stroke="none" 
	d="
M56.762177,24.988377 
	C54.672012,24.988489 53.037262,24.988489 51.105106,24.988489 
	C51.105106,22.308365 51.105106,19.930750 51.105106,17.017397 
	C53.737598,17.017397 56.447395,16.570461 58.907780,17.161604 
	C60.808525,17.618284 63.503551,19.093142 63.892689,20.614733 
	C64.696495,23.757721 61.821476,24.598400 59.204430,24.952890 
	C58.552513,25.041195 57.880409,24.980482 56.762177,24.988377 
z"/>
</svg>